<?xml version="1.0" encoding="UTF-8" standalone="no"?>
<svg
   xmlns:dc="http://purl.org/dc/elements/1.1/"
   xmlns:cc="http://creativecommons.org/ns#"
   xmlns:rdf="http://www.w3.org/1999/02/22-rdf-syntax-ns#"
   xmlns:svg="http://www.w3.org/2000/svg"
   xmlns="http://www.w3.org/2000/svg"
   xmlns:sodipodi="http://sodipodi.sourceforge.net/DTD/sodipodi-0.dtd"
   xmlns:inkscape="http://www.inkscape.org/namespaces/inkscape"
   width="360"
   height="9600"
   viewBox="0 0 360 9600"
   version="1.1"
   id="svg5821"
   sodipodi:docname="bg.svg"
   inkscape:version="0.92.3 (2405546, 2018-03-11)">
  <metadata
     id="metadata5825">
    <rdf:RDF>
      <cc:Work
         rdf:about="">
        <dc:format>image/svg+xml</dc:format>
        <dc:type
           rdf:resource="http://purl.org/dc/dcmitype/StillImage" />
      </cc:Work>
    </rdf:RDF>
  </metadata>
  <sodipodi:namedview
     pagecolor="#ffffff"
     bordercolor="#666666"
     borderopacity="1"
     objecttolerance="10"
     gridtolerance="10"
     guidetolerance="10"
     inkscape:pageopacity="0"
     inkscape:pageshadow="2"
     inkscape:window-width="1366"
     inkscape:window-height="705"
     id="namedview5823"
     showgrid="false"
     inkscape:zoom="1.5733333"
     inkscape:cx="-44.417154"
     inkscape:cy="2280.1727"
     inkscape:window-x="-8"
     inkscape:window-y="-8"
     inkscape:window-maximized="1"
     inkscape:current-layer="svg5821" />
  <defs
     id="defs5637">
    <style
       id="style5635">
      .cls-1 {
        fill: #0f9d00;
      }

      .cls-2 {
        fill: #4d4d4d;
        stroke: #fff;
        stroke-width: 15px;
      }

      .cls-3 {
        fill: #fff;
      }
    </style>
  </defs>
  <rect
     id="grass"
     class="cls-1"
     width="360"
     height="9600" />
  <rect
     id="road"
     class="cls-2"
     x="63"
     y="-39"
     width="235"
     height="9669" />
  <rect
     id="road_paint"
     class="cls-3"
     x="173"
     y="1263"
     width="15"
     height="18" />
  <rect
     id="road_paint-2"
     data-name="road_paint"
     class="cls-3"
     x="173"
     y="737"
     width="15"
     height="35" />
  <rect
     id="road_paint-3"
     data-name="road_paint"
     class="cls-3"
     x="173"
     y="796"
     width="15"
     height="35" />
  <rect
     id="road_paint-4"
     data-name="road_paint"
     class="cls-3"
     x="173"
     y="855"
     width="15"
     height="35" />
  <rect
     id="road_paint-5"
     data-name="road_paint"
     class="cls-3"
     x="173"
     y="914"
     width="15"
     height="35" />
  <rect
     id="road_paint-6"
     data-name="road_paint"
     class="cls-3"
     x="173"
     y="972"
     width="15"
     height="35" />
  <rect
     id="road_paint-7"
     data-name="road_paint"
     class="cls-3"
     x="173"
     y="1031"
     width="15"
     height="35" />
  <rect
     id="road_paint-8"
     data-name="road_paint"
     class="cls-3"
     x="173"
     y="1090"
     width="15"
     height="35" />
  <rect
     id="road_paint-9"
     data-name="road_paint"
     class="cls-3"
     x="173"
     y="1149"
     width="15"
     height="35" />
  <rect
     id="road_paint-10"
     data-name="road_paint"
     class="cls-3"
     x="173"
     y="1208"
     width="15"
     height="35" />
  <rect
     id="road_paint-11"
     data-name="road_paint"
     class="cls-3"
     x="173"
     y="678"
     width="15"
     height="35" />
  <rect
     id="road_paint-12"
     data-name="road_paint"
     class="cls-3"
     x="173"
     y="640"
     width="15"
     height="18" />
  <rect
     id="road_paint-13"
     data-name="road_paint"
     class="cls-3"
     x="173"
     y="1903"
     width="15"
     height="18" />
  <rect
     id="road_paint-14"
     data-name="road_paint"
     class="cls-3"
     x="173"
     y="1377"
     width="15"
     height="35" />
  <rect
     id="road_paint-15"
     data-name="road_paint"
     class="cls-3"
     x="173"
     y="1436"
     width="15"
     height="35" />
  <rect
     id="road_paint-16"
     data-name="road_paint"
     class="cls-3"
     x="173"
     y="1495"
     width="15"
     height="35" />
  <rect
     id="road_paint-17"
     data-name="road_paint"
     class="cls-3"
     x="173"
     y="1554"
     width="15"
     height="35" />
  <rect
     id="road_paint-18"
     data-name="road_paint"
     class="cls-3"
     x="173"
     y="1612"
     width="15"
     height="35" />
  <rect
     id="road_paint-19"
     data-name="road_paint"
     class="cls-3"
     x="173"
     y="1671"
     width="15"
     height="35" />
  <rect
     id="road_paint-20"
     data-name="road_paint"
     class="cls-3"
     x="173"
     y="1730"
     width="15"
     height="35" />
  <rect
     id="road_paint-21"
     data-name="road_paint"
     class="cls-3"
     x="173"
     y="1789"
     width="15"
     height="35" />
  <rect
     id="road_paint-22"
     data-name="road_paint"
     class="cls-3"
     x="173"
     y="1848"
     width="15"
     height="35" />
  <rect
     id="road_paint-23"
     data-name="road_paint"
     class="cls-3"
     x="173"
     y="1318"
     width="15"
     height="35" />
  <rect
     id="road_paint-24"
     data-name="road_paint"
     class="cls-3"
     x="173"
     y="1280"
     width="15"
     height="18" />
  <rect
     id="road_paint-25"
     data-name="road_paint"
     class="cls-3"
     x="173"
     y="2543"
     width="15"
     height="18" />
  <rect
     id="road_paint-26"
     data-name="road_paint"
     class="cls-3"
     x="173"
     y="2017"
     width="15"
     height="35" />
  <rect
     id="road_paint-27"
     data-name="road_paint"
     class="cls-3"
     x="173"
     y="2076"
     width="15"
     height="35" />
  <rect
     id="road_paint-28"
     data-name="road_paint"
     class="cls-3"
     x="173"
     y="2135"
     width="15"
     height="35" />
  <rect
     id="road_paint-29"
     data-name="road_paint"
     class="cls-3"
     x="173"
     y="2194"
     width="15"
     height="35" />
  <rect
     id="road_paint-30"
     data-name="road_paint"
     class="cls-3"
     x="173"
     y="2252"
     width="15"
     height="35" />
  <rect
     id="road_paint-31"
     data-name="road_paint"
     class="cls-3"
     x="173"
     y="2311"
     width="15"
     height="35" />
  <rect
     id="road_paint-32"
     data-name="road_paint"
     class="cls-3"
     x="173"
     y="2370"
     width="15"
     height="35" />
  <rect
     id="road_paint-33"
     data-name="road_paint"
     class="cls-3"
     x="173"
     y="2429"
     width="15"
     height="35" />
  <rect
     id="road_paint-34"
     data-name="road_paint"
     class="cls-3"
     x="173"
     y="2488"
     width="15"
     height="35" />
  <rect
     id="road_paint-35"
     data-name="road_paint"
     class="cls-3"
     x="173"
     y="1958"
     width="15"
     height="35" />
  <rect
     id="road_paint-36"
     data-name="road_paint"
     class="cls-3"
     x="173"
     y="1920"
     width="15"
     height="18" />
  <rect
     id="road_paint-37"
     data-name="road_paint"
     class="cls-3"
     x="173"
     y="3183"
     width="15"
     height="18" />
  <rect
     id="road_paint-38"
     data-name="road_paint"
     class="cls-3"
     x="173"
     y="2657"
     width="15"
     height="35" />
  <rect
     id="road_paint-39"
     data-name="road_paint"
     class="cls-3"
     x="173"
     y="2716"
     width="15"
     height="35" />
  <rect
     id="road_paint-40"
     data-name="road_paint"
     class="cls-3"
     x="173"
     y="2775"
     width="15"
     height="35" />
  <rect
     id="road_paint-41"
     data-name="road_paint"
     class="cls-3"
     x="173"
     y="2834"
     width="15"
     height="35" />
  <rect
     id="road_paint-42"
     data-name="road_paint"
     class="cls-3"
     x="173"
     y="2892"
     width="15"
     height="35" />
  <rect
     id="road_paint-43"
     data-name="road_paint"
     class="cls-3"
     x="173"
     y="2951"
     width="15"
     height="35" />
  <rect
     id="road_paint-44"
     data-name="road_paint"
     class="cls-3"
     x="173"
     y="3010"
     width="15"
     height="35" />
  <rect
     id="road_paint-45"
     data-name="road_paint"
     class="cls-3"
     x="173"
     y="3069"
     width="15"
     height="35" />
  <rect
     id="road_paint-46"
     data-name="road_paint"
     class="cls-3"
     x="173"
     y="3128"
     width="15"
     height="35" />
  <rect
     id="road_paint-47"
     data-name="road_paint"
     class="cls-3"
     x="173"
     y="2598"
     width="15"
     height="35" />
  <rect
     id="road_paint-48"
     data-name="road_paint"
     class="cls-3"
     x="173"
     y="2560"
     width="15"
     height="18" />
  <rect
     id="road_paint-49"
     data-name="road_paint"
     class="cls-3"
     x="173"
     y="3823"
     width="15"
     height="18" />
  <rect
     id="road_paint-50"
     data-name="road_paint"
     class="cls-3"
     x="173"
     y="3297"
     width="15"
     height="35" />
  <rect
     id="road_paint-51"
     data-name="road_paint"
     class="cls-3"
     x="173"
     y="3356"
     width="15"
     height="35" />
  <rect
     id="road_paint-52"
     data-name="road_paint"
     class="cls-3"
     x="173"
     y="3415"
     width="15"
     height="35" />
  <rect
     id="road_paint-53"
     data-name="road_paint"
     class="cls-3"
     x="173"
     y="3474"
     width="15"
     height="35" />
  <rect
     id="road_paint-54"
     data-name="road_paint"
     class="cls-3"
     x="173"
     y="3532"
     width="15"
     height="35" />
  <rect
     id="road_paint-55"
     data-name="road_paint"
     class="cls-3"
     x="173"
     y="3591"
     width="15"
     height="35" />
  <rect
     id="road_paint-56"
     data-name="road_paint"
     class="cls-3"
     x="173"
     y="3650"
     width="15"
     height="35" />
  <rect
     id="road_paint-57"
     data-name="road_paint"
     class="cls-3"
     x="173"
     y="3709"
     width="15"
     height="35" />
  <rect
     id="road_paint-58"
     data-name="road_paint"
     class="cls-3"
     x="173"
     y="3768"
     width="15"
     height="35" />
  <rect
     id="road_paint-59"
     data-name="road_paint"
     class="cls-3"
     x="173"
     y="3238"
     width="15"
     height="35" />
  <rect
     id="road_paint-60"
     data-name="road_paint"
     class="cls-3"
     x="173"
     y="3200"
     width="15"
     height="18" />
  <rect
     id="road_paint-61"
     data-name="road_paint"
     class="cls-3"
     x="173"
     y="4463"
     width="15"
     height="18" />
  <rect
     id="road_paint-62"
     data-name="road_paint"
     class="cls-3"
     x="173"
     y="3937"
     width="15"
     height="35" />
  <rect
     id="road_paint-63"
     data-name="road_paint"
     class="cls-3"
     x="173"
     y="3996"
     width="15"
     height="35" />
  <rect
     id="road_paint-64"
     data-name="road_paint"
     class="cls-3"
     x="173"
     y="4055"
     width="15"
     height="35" />
  <rect
     id="road_paint-65"
     data-name="road_paint"
     class="cls-3"
     x="173"
     y="4114"
     width="15"
     height="35" />
  <rect
     id="road_paint-66"
     data-name="road_paint"
     class="cls-3"
     x="173"
     y="4172"
     width="15"
     height="35" />
  <rect
     id="road_paint-67"
     data-name="road_paint"
     class="cls-3"
     x="173"
     y="4231"
     width="15"
     height="35" />
  <rect
     id="road_paint-68"
     data-name="road_paint"
     class="cls-3"
     x="173"
     y="4290"
     width="15"
     height="35" />
  <rect
     id="road_paint-69"
     data-name="road_paint"
     class="cls-3"
     x="173"
     y="4349"
     width="15"
     height="35" />
  <rect
     id="road_paint-70"
     data-name="road_paint"
     class="cls-3"
     x="173"
     y="4408"
     width="15"
     height="35" />
  <rect
     id="road_paint-71"
     data-name="road_paint"
     class="cls-3"
     x="173"
     y="3878"
     width="15"
     height="35" />
  <rect
     id="road_paint-72"
     data-name="road_paint"
     class="cls-3"
     x="173"
     y="3840"
     width="15"
     height="18" />
  <rect
     id="road_paint-73"
     data-name="road_paint"
     class="cls-3"
     x="173"
     y="5103"
     width="15"
     height="18" />
  <rect
     id="road_paint-74"
     data-name="road_paint"
     class="cls-3"
     x="173"
     y="4577"
     width="15"
     height="35" />
  <rect
     id="road_paint-75"
     data-name="road_paint"
     class="cls-3"
     x="173"
     y="4636"
     width="15"
     height="35" />
  <rect
     id="road_paint-76"
     data-name="road_paint"
     class="cls-3"
     x="173"
     y="4695"
     width="15"
     height="35" />
  <rect
     id="road_paint-77"
     data-name="road_paint"
     class="cls-3"
     x="173"
     y="4754"
     width="15"
     height="35" />
  <rect
     id="road_paint-78"
     data-name="road_paint"
     class="cls-3"
     x="173"
     y="4812"
     width="15"
     height="35" />
  <rect
     id="road_paint-79"
     data-name="road_paint"
     class="cls-3"
     x="173"
     y="4871"
     width="15"
     height="35" />
  <rect
     id="road_paint-80"
     data-name="road_paint"
     class="cls-3"
     x="173"
     y="4930"
     width="15"
     height="35" />
  <rect
     id="road_paint-81"
     data-name="road_paint"
     class="cls-3"
     x="173"
     y="4989"
     width="15"
     height="35" />
  <rect
     id="road_paint-82"
     data-name="road_paint"
     class="cls-3"
     x="173"
     y="5048"
     width="15"
     height="35" />
  <rect
     id="road_paint-83"
     data-name="road_paint"
     class="cls-3"
     x="173"
     y="4518"
     width="15"
     height="35" />
  <rect
     id="road_paint-84"
     data-name="road_paint"
     class="cls-3"
     x="173"
     y="4480"
     width="15"
     height="18" />
  <rect
     id="road_paint-85"
     data-name="road_paint"
     class="cls-3"
     x="173"
     y="5743"
     width="15"
     height="18" />
  <rect
     id="road_paint-86"
     data-name="road_paint"
     class="cls-3"
     x="173"
     y="5217"
     width="15"
     height="35" />
  <rect
     id="road_paint-87"
     data-name="road_paint"
     class="cls-3"
     x="173"
     y="5276"
     width="15"
     height="35" />
  <rect
     id="road_paint-88"
     data-name="road_paint"
     class="cls-3"
     x="173"
     y="5335"
     width="15"
     height="35" />
  <rect
     id="road_paint-89"
     data-name="road_paint"
     class="cls-3"
     x="173"
     y="5394"
     width="15"
     height="35" />
  <rect
     id="road_paint-90"
     data-name="road_paint"
     class="cls-3"
     x="173"
     y="5452"
     width="15"
     height="35" />
  <rect
     id="road_paint-91"
     data-name="road_paint"
     class="cls-3"
     x="173"
     y="5511"
     width="15"
     height="35" />
  <rect
     id="road_paint-92"
     data-name="road_paint"
     class="cls-3"
     x="173"
     y="5570"
     width="15"
     height="35" />
  <rect
     id="road_paint-93"
     data-name="road_paint"
     class="cls-3"
     x="173"
     y="5629"
     width="15"
     height="35" />
  <rect
     id="road_paint-94"
     data-name="road_paint"
     class="cls-3"
     x="173"
     y="5688"
     width="15"
     height="35" />
  <rect
     id="road_paint-95"
     data-name="road_paint"
     class="cls-3"
     x="173"
     y="5158"
     width="15"
     height="35" />
  <rect
     id="road_paint-96"
     data-name="road_paint"
     class="cls-3"
     x="173"
     y="5120"
     width="15"
     height="18" />
  <rect
     id="road_paint-97"
     data-name="road_paint"
     class="cls-3"
     x="173"
     y="6383"
     width="15"
     height="18" />
  <rect
     id="road_paint-98"
     data-name="road_paint"
     class="cls-3"
     x="173"
     y="5857"
     width="15"
     height="35" />
  <rect
     id="road_paint-99"
     data-name="road_paint"
     class="cls-3"
     x="173"
     y="5916"
     width="15"
     height="35" />
  <rect
     id="road_paint-100"
     data-name="road_paint"
     class="cls-3"
     x="173"
     y="5975"
     width="15"
     height="35" />
  <rect
     id="road_paint-101"
     data-name="road_paint"
     class="cls-3"
     x="173"
     y="6034"
     width="15"
     height="35" />
  <rect
     id="road_paint-102"
     data-name="road_paint"
     class="cls-3"
     x="173"
     y="6092"
     width="15"
     height="35" />
  <rect
     id="road_paint-103"
     data-name="road_paint"
     class="cls-3"
     x="173"
     y="6151"
     width="15"
     height="35" />
  <rect
     id="road_paint-104"
     data-name="road_paint"
     class="cls-3"
     x="173"
     y="6210"
     width="15"
     height="35" />
  <rect
     id="road_paint-105"
     data-name="road_paint"
     class="cls-3"
     x="173"
     y="6269"
     width="15"
     height="35" />
  <rect
     id="road_paint-106"
     data-name="road_paint"
     class="cls-3"
     x="-474.18246"
     y="6385.5273"
     width="15"
     height="35"
     style="fill:#ffffff" />
  <rect
     id="road_paint-107"
     data-name="road_paint"
     class="cls-3"
     x="173"
     y="5798"
     width="15"
     height="35" />
  <rect
     id="road_paint-108"
     data-name="road_paint"
     class="cls-3"
     x="173"
     y="5760"
     width="15"
     height="18" />
  <rect
     id="road_paint-109"
     data-name="road_paint"
     class="cls-3"
     x="173"
     y="7023"
     width="15"
     height="18" />
  <rect
     id="road_paint-110"
     data-name="road_paint"
     class="cls-3"
     x="173"
     y="6497"
     width="15"
     height="35" />
  <rect
     id="road_paint-111"
     data-name="road_paint"
     class="cls-3"
     x="173"
     y="6556"
     width="15"
     height="35" />
  <rect
     id="road_paint-112"
     data-name="road_paint"
     class="cls-3"
     x="173"
     y="6615"
     width="15"
     height="35" />
  <rect
     id="road_paint-113"
     data-name="road_paint"
     class="cls-3"
     x="173"
     y="6674"
     width="15"
     height="35" />
  <rect
     id="road_paint-114"
     data-name="road_paint"
     class="cls-3"
     x="173"
     y="6732"
     width="15"
     height="35" />
  <rect
     id="road_paint-115"
     data-name="road_paint"
     class="cls-3"
     x="173"
     y="6791"
     width="15"
     height="35" />
  <rect
     id="road_paint-116"
     data-name="road_paint"
     class="cls-3"
     x="173"
     y="6850"
     width="15"
     height="35" />
  <rect
     id="road_paint-117"
     data-name="road_paint"
     class="cls-3"
     x="173"
     y="6909"
     width="15"
     height="35" />
  <rect
     id="road_paint-118"
     data-name="road_paint"
     class="cls-3"
     x="173"
     y="6968"
     width="15"
     height="35" />
  <rect
     id="road_paint-119"
     data-name="road_paint"
     class="cls-3"
     x="173"
     y="6438"
     width="15"
     height="35" />
  <rect
     id="road_paint-120"
     data-name="road_paint"
     class="cls-3"
     x="173"
     y="6400"
     width="15"
     height="18" />
  <rect
     id="road_paint-121"
     data-name="road_paint"
     class="cls-3"
     x="173"
     y="7663"
     width="15"
     height="18" />
  <rect
     id="road_paint-122"
     data-name="road_paint"
     class="cls-3"
     x="173"
     y="7137"
     width="15"
     height="35" />
  <rect
     id="road_paint-123"
     data-name="road_paint"
     class="cls-3"
     x="173"
     y="7196"
     width="15"
     height="35" />
  <rect
     id="road_paint-124"
     data-name="road_paint"
     class="cls-3"
     x="173"
     y="7255"
     width="15"
     height="35" />
  <rect
     id="road_paint-125"
     data-name="road_paint"
     class="cls-3"
     x="173"
     y="7314"
     width="15"
     height="35" />
  <rect
     id="road_paint-126"
     data-name="road_paint"
     class="cls-3"
     x="173"
     y="7372"
     width="15"
     height="35" />
  <rect
     id="road_paint-127"
     data-name="road_paint"
     class="cls-3"
     x="173"
     y="7431"
     width="15"
     height="35" />
  <rect
     id="road_paint-128"
     data-name="road_paint"
     class="cls-3"
     x="173"
     y="7490"
     width="15"
     height="35" />
  <rect
     id="road_paint-129"
     data-name="road_paint"
     class="cls-3"
     x="173"
     y="7549"
     width="15"
     height="35" />
  <rect
     id="road_paint-130"
     data-name="road_paint"
     class="cls-3"
     x="173"
     y="7608"
     width="15"
     height="35" />
  <rect
     id="road_paint-131"
     data-name="road_paint"
     class="cls-3"
     x="173"
     y="7078"
     width="15"
     height="35" />
  <rect
     id="road_paint-132"
     data-name="road_paint"
     class="cls-3"
     x="173"
     y="7040"
     width="15"
     height="18" />
  <rect
     id="road_paint-133"
     data-name="road_paint"
     class="cls-3"
     x="173"
     y="8303"
     width="15"
     height="18" />
  <rect
     id="road_paint-134"
     data-name="road_paint"
     class="cls-3"
     x="173"
     y="7777"
     width="15"
     height="35" />
  <rect
     id="road_paint-135"
     data-name="road_paint"
     class="cls-3"
     x="173"
     y="7836"
     width="15"
     height="35" />
  <rect
     id="road_paint-136"
     data-name="road_paint"
     class="cls-3"
     x="173"
     y="7895"
     width="15"
     height="35" />
  <rect
     id="road_paint-137"
     data-name="road_paint"
     class="cls-3"
     x="173"
     y="7954"
     width="15"
     height="35" />
  <rect
     id="road_paint-138"
     data-name="road_paint"
     class="cls-3"
     x="173"
     y="8012"
     width="15"
     height="35" />
  <rect
     id="road_paint-139"
     data-name="road_paint"
     class="cls-3"
     x="173"
     y="8071"
     width="15"
     height="35" />
  <rect
     id="road_paint-140"
     data-name="road_paint"
     class="cls-3"
     x="173"
     y="8130"
     width="15"
     height="35" />
  <rect
     id="road_paint-141"
     data-name="road_paint"
     class="cls-3"
     x="173"
     y="8189"
     width="15"
     height="35" />
  <rect
     id="road_paint-142"
     data-name="road_paint"
     class="cls-3"
     x="173"
     y="8248"
     width="15"
     height="35" />
  <rect
     id="road_paint-143"
     data-name="road_paint"
     class="cls-3"
     x="173"
     y="7718"
     width="15"
     height="35" />
  <rect
     id="road_paint-144"
     data-name="road_paint"
     class="cls-3"
     x="173"
     y="7680"
     width="15"
     height="18" />
  <rect
     id="road_paint-145"
     data-name="road_paint"
     class="cls-3"
     x="173"
     y="8943"
     width="15"
     height="18" />
  <rect
     id="road_paint-146"
     data-name="road_paint"
     class="cls-3"
     x="173"
     y="8417"
     width="15"
     height="35" />
  <rect
     id="road_paint-147"
     data-name="road_paint"
     class="cls-3"
     x="173"
     y="8476"
     width="15"
     height="35" />
  <rect
     id="road_paint-148"
     data-name="road_paint"
     class="cls-3"
     x="173"
     y="8535"
     width="15"
     height="35" />
  <rect
     id="road_paint-149"
     data-name="road_paint"
     class="cls-3"
     x="173"
     y="8594"
     width="15"
     height="35" />
  <rect
     id="road_paint-150"
     data-name="road_paint"
     class="cls-3"
     x="173"
     y="8652"
     width="15"
     height="35" />
  <rect
     id="road_paint-151"
     data-name="road_paint"
     class="cls-3"
     x="173"
     y="8711"
     width="15"
     height="35" />
  <rect
     id="road_paint-152"
     data-name="road_paint"
     class="cls-3"
     x="173"
     y="8770"
     width="15"
     height="35" />
  <rect
     id="road_paint-153"
     data-name="road_paint"
     class="cls-3"
     x="173"
     y="8829"
     width="15"
     height="35" />
  <rect
     id="road_paint-154"
     data-name="road_paint"
     class="cls-3"
     x="173"
     y="8888"
     width="15"
     height="35" />
  <rect
     id="road_paint-155"
     data-name="road_paint"
     class="cls-3"
     x="173"
     y="8358"
     width="15"
     height="35" />
  <rect
     id="road_paint-156"
     data-name="road_paint"
     class="cls-3"
     x="173"
     y="8320"
     width="15"
     height="18" />
  <rect
     id="road_paint-157"
     data-name="road_paint"
     class="cls-3"
     x="173"
     y="9583"
     width="15"
     height="18" />
  <rect
     id="road_paint-158"
     data-name="road_paint"
     class="cls-3"
     x="173"
     y="9057"
     width="15"
     height="35" />
  <rect
     id="road_paint-159"
     data-name="road_paint"
     class="cls-3"
     x="173"
     y="9116"
     width="15"
     height="35" />
  <rect
     id="road_paint-160"
     data-name="road_paint"
     class="cls-3"
     x="173"
     y="9175"
     width="15"
     height="35" />
  <rect
     id="road_paint-161"
     data-name="road_paint"
     class="cls-3"
     x="173"
     y="9234"
     width="15"
     height="35" />
  <rect
     id="road_paint-162"
     data-name="road_paint"
     class="cls-3"
     x="173"
     y="9292"
     width="15"
     height="35" />
  <rect
     id="road_paint-163"
     data-name="road_paint"
     class="cls-3"
     x="173"
     y="9351"
     width="15"
     height="35" />
  <rect
     id="road_paint-164"
     data-name="road_paint"
     class="cls-3"
     x="173"
     y="9410"
     width="15"
     height="35" />
  <rect
     id="road_paint-165"
     data-name="road_paint"
     class="cls-3"
     x="173"
     y="9469"
     width="15"
     height="35" />
  <rect
     id="road_paint-166"
     data-name="road_paint"
     class="cls-3"
     x="173"
     y="9528"
     width="15"
     height="35" />
  <rect
     id="road_paint-167"
     data-name="road_paint"
     class="cls-3"
     x="173"
     y="8998"
     width="15"
     height="35" />
  <rect
     id="road_paint-168"
     data-name="road_paint"
     class="cls-3"
     x="173"
     y="8960"
     width="15"
     height="18" />
  <rect
     id="road_paint-169"
     data-name="road_paint"
     class="cls-3"
     x="173"
     y="623"
     width="15"
     height="18" />
  <rect
     id="road_paint-170"
     data-name="road_paint"
     class="cls-3"
     x="173"
     y="97"
     width="15"
     height="35" />
  <rect
     id="road_paint-171"
     data-name="road_paint"
     class="cls-3"
     x="173"
     y="156"
     width="15"
     height="35" />
  <rect
     id="road_paint-172"
     data-name="road_paint"
     class="cls-3"
     x="173"
     y="215"
     width="15"
     height="35" />
  <rect
     id="road_paint-173"
     data-name="road_paint"
     class="cls-3"
     x="173"
     y="274"
     width="15"
     height="35" />
  <rect
     id="road_paint-174"
     data-name="road_paint"
     class="cls-3"
     x="173"
     y="332"
     width="15"
     height="35" />
  <rect
     id="road_paint-175"
     data-name="road_paint"
     class="cls-3"
     x="173"
     y="391"
     width="15"
     height="35" />
  <rect
     id="road_paint-176"
     data-name="road_paint"
     class="cls-3"
     x="173"
     y="450"
     width="15"
     height="35" />
  <rect
     id="road_paint-177"
     data-name="road_paint"
     class="cls-3"
     x="173"
     y="509"
     width="15"
     height="35" />
  <rect
     id="road_paint-178"
     data-name="road_paint"
     class="cls-3"
     x="173"
     y="568"
     width="15"
     height="35" />
  <rect
     id="road_paint-179"
     data-name="road_paint"
     class="cls-3"
     x="173"
     y="38"
     width="15"
     height="35" />
  <rect
     id="road_paint-180"
     data-name="road_paint"
     class="cls-3"
     x="173"
     width="15"
     height="18" />
</svg>
