<?xml version="1.0" encoding="UTF-8" standalone="no"?>
<svg
   xmlns:dc="http://purl.org/dc/elements/1.1/"
   xmlns:cc="http://creativecommons.org/ns#"
   xmlns:rdf="http://www.w3.org/1999/02/22-rdf-syntax-ns#"
   xmlns:svg="http://www.w3.org/2000/svg"
   xmlns="http://www.w3.org/2000/svg"
   xmlns:sodipodi="http://sodipodi.sourceforge.net/DTD/sodipodi-0.dtd"
   xmlns:inkscape="http://www.inkscape.org/namespaces/inkscape"
   width="360"
   height="1920"
   viewBox="0 0 360 1920"
   version="1.1"
   id="svg6101"
   sodipodi:docname="BG_roadBoundary.svg"
   inkscape:version="0.92.3 (2405546, 2018-03-11)">
  <metadata
     id="metadata6105">
    <rdf:RDF>
      <cc:Work
         rdf:about="">
        <dc:format>image/svg+xml</dc:format>
        <dc:type
           rdf:resource="http://purl.org/dc/dcmitype/StillImage" />
        <dc:title></dc:title>
      </cc:Work>
    </rdf:RDF>
  </metadata>
  <sodipodi:namedview
     pagecolor="#ffffff"
     bordercolor="#666666"
     borderopacity="1"
     objecttolerance="10"
     gridtolerance="10"
     guidetolerance="10"
     inkscape:pageopacity="0"
     inkscape:pageshadow="2"
     inkscape:window-width="1366"
     inkscape:window-height="705"
     id="namedview6103"
     showgrid="false"
     inkscape:zoom="0.69532167"
     inkscape:cx="235.55434"
     inkscape:cy="1827.7943"
     inkscape:window-x="-8"
     inkscape:window-y="-8"
     inkscape:window-maximized="1"
     inkscape:current-layer="svg6101" />
  <defs
     id="defs5829">
    <style
       id="style5827">
      .cls-1 {
        fill: #48a118;
      }

      .cls-2 {
        fill: #2c2c2c;
      }

      .cls-3, .cls-6 {
        fill: #efefef;
      }

      .cls-4, .cls-6, .cls-7, .cls-8 {
        fill-rule: evenodd;
      }

      .cls-4 {
        opacity: 0.4;
      }

      .cls-5 {
        fill: #7f7f7f;
      }

      .cls-7 {
        fill: #fff;
      }

      .cls-8 {
        fill: #bdbdbd;
      }
    </style>
  </defs>
  <rect
     id="road_edge_l"
     class="cls-3"
     x="78"
     width="5"
     height="1920" />
  <rect
     id="road_edge_R"
     class="cls-3"
     x="276"
     width="5"
     height="1920" />
  <path
     id="sideblock_shadow"
     class="cls-4"
     d="M55-69l16-7V0L55,7V-69Z" />
  <path
     id="sideblock_shadow-2"
     data-name="sideblock_shadow"
     class="cls-4"
     d="M55,11L71,4V80L55,87V11Z" />
  <rect
     id="sideblock_front"
     class="cls-5"
     x="59"
     y="72.563"
     width="12"
     height="7.438" />
  <path
     id="sideblock_top"
     class="cls-6"
     d="M63,0h4V74.419H63V0Z" />
  <path
     id="sideblock_right"
     class="cls-7"
     d="M67,0l4,4.651V79.07l-4-4.651V0Z" />
  <path
     id="sideblock_left"
     class="cls-8"
     d="M59,4.651L63,0V74.419L59,79.07V4.651Z" />
  <path
     id="sideblock_shadow-3"
     data-name="sideblock_shadow"
     class="cls-4"
     d="M55,91l16-7v76l-16,7V91Z" />
  <rect
     id="sideblock_front-2"
     data-name="sideblock_front"
     class="cls-5"
     x="59"
     y="152.562"
     width="12"
     height="7.438" />
  <path
     id="sideblock_top-2"
     data-name="sideblock_top"
     class="cls-6"
     d="M63,80h4v74.419H63V80Z" />
  <path
     id="sideblock_right-2"
     data-name="sideblock_right"
     class="cls-7"
     d="M67,80l4,4.651V159.07l-4-4.651V80Z" />
  <path
     id="sideblock_left-2"
     data-name="sideblock_left"
     class="cls-8"
     d="M59,84.651L63,80v74.419l-4,4.651V84.651Z" />
  <path
     id="sideblock_shadow-4"
     data-name="sideblock_shadow"
     class="cls-4"
     d="M55,171l16-7v76l-16,7V171Z" />
  <rect
     id="sideblock_front-3"
     data-name="sideblock_front"
     class="cls-5"
     x="59"
     y="232.562"
     width="12"
     height="7.438" />
  <path
     id="sideblock_top-3"
     data-name="sideblock_top"
     class="cls-6"
     d="M63,160h4v74.419H63V160Z" />
  <path
     id="sideblock_right-3"
     data-name="sideblock_right"
     class="cls-7"
     d="M67,160l4,4.651V239.07l-4-4.651V160Z" />
  <path
     id="sideblock_left-3"
     data-name="sideblock_left"
     class="cls-8"
     d="M59,164.651L63,160v74.419l-4,4.651V164.651Z" />
  <path
     id="sideblock_shadow-5"
     data-name="sideblock_shadow"
     class="cls-4"
     d="M55,251l16-7v76l-16,7V251Z" />
  <rect
     id="sideblock_front-4"
     data-name="sideblock_front"
     class="cls-5"
     x="59"
     y="312.562"
     width="12"
     height="7.438" />
  <path
     id="sideblock_top-4"
     data-name="sideblock_top"
     class="cls-6"
     d="M63,240h4v74.419H63V240Z" />
  <path
     id="sideblock_right-4"
     data-name="sideblock_right"
     class="cls-7"
     d="M67,240l4,4.651V319.07l-4-4.651V240Z" />
  <path
     id="sideblock_left-4"
     data-name="sideblock_left"
     class="cls-8"
     d="M59,244.651L63,240v74.419l-4,4.651V244.651Z" />
  <path
     id="sideblock_shadow-6"
     data-name="sideblock_shadow"
     class="cls-4"
     d="M55,331l16-7v76l-16,7V331Z" />
  <rect
     id="sideblock_front-5"
     data-name="sideblock_front"
     class="cls-5"
     x="59"
     y="392.562"
     width="12"
     height="7.438" />
  <path
     id="sideblock_top-5"
     data-name="sideblock_top"
     class="cls-6"
     d="M63,320h4v74.419H63V320Z" />
  <path
     id="sideblock_right-5"
     data-name="sideblock_right"
     class="cls-7"
     d="M67,320l4,4.651V399.07l-4-4.651V320Z" />
  <path
     id="sideblock_left-5"
     data-name="sideblock_left"
     class="cls-8"
     d="M59,324.651L63,320v74.419l-4,4.651V324.651Z" />
  <path
     id="sideblock_shadow-7"
     data-name="sideblock_shadow"
     class="cls-4"
     d="M55,411l16-7v76l-16,7V411Z" />
  <rect
     id="sideblock_front-6"
     data-name="sideblock_front"
     class="cls-5"
     x="59"
     y="472.562"
     width="12"
     height="7.438" />
  <path
     id="sideblock_top-6"
     data-name="sideblock_top"
     class="cls-6"
     d="M63,400h4v74.419H63V400Z" />
  <path
     id="sideblock_right-6"
     data-name="sideblock_right"
     class="cls-7"
     d="M67,400l4,4.651V479.07l-4-4.651V400Z" />
  <path
     id="sideblock_left-6"
     data-name="sideblock_left"
     class="cls-8"
     d="M59,404.651L63,400v74.419l-4,4.651V404.651Z" />
  <path
     id="sideblock_shadow-8"
     data-name="sideblock_shadow"
     class="cls-4"
     d="M55,491l16-7v76l-16,7V491Z" />
  <rect
     id="sideblock_front-7"
     data-name="sideblock_front"
     class="cls-5"
     x="59"
     y="552.562"
     width="12"
     height="7.438" />
  <path
     id="sideblock_top-7"
     data-name="sideblock_top"
     class="cls-6"
     d="M63,480h4v74.419H63V480Z" />
  <path
     id="sideblock_right-7"
     data-name="sideblock_right"
     class="cls-7"
     d="M67,480l4,4.651V559.07l-4-4.651V480Z" />
  <path
     id="sideblock_left-7"
     data-name="sideblock_left"
     class="cls-8"
     d="M59,484.651L63,480v74.419l-4,4.651V484.651Z" />
  <path
     id="sideblock_shadow-9"
     data-name="sideblock_shadow"
     class="cls-4"
     d="M55,571l16-7v76l-16,7V571Z" />
  <rect
     id="sideblock_front-8"
     data-name="sideblock_front"
     class="cls-5"
     x="59"
     y="632.562"
     width="12"
     height="7.438" />
  <path
     id="sideblock_top-8"
     data-name="sideblock_top"
     class="cls-6"
     d="M63,560h4v74.419H63V560Z" />
  <path
     id="sideblock_right-8"
     data-name="sideblock_right"
     class="cls-7"
     d="M67,560l4,4.651V639.07l-4-4.651V560Z" />
  <path
     id="sideblock_left-8"
     data-name="sideblock_left"
     class="cls-8"
     d="M59,564.651L63,560v74.419l-4,4.651V564.651Z" />
  <path
     id="sideblock_shadow-10"
     data-name="sideblock_shadow"
     class="cls-4"
     d="M55,651l16-7v76l-16,7V651Z" />
  <rect
     id="sideblock_front-9"
     data-name="sideblock_front"
     class="cls-5"
     x="59"
     y="712.562"
     width="12"
     height="7.438" />
  <path
     id="sideblock_top-9"
     data-name="sideblock_top"
     class="cls-6"
     d="M63,640h4v74.419H63V640Z" />
  <path
     id="sideblock_right-9"
     data-name="sideblock_right"
     class="cls-7"
     d="M67,640l4,4.651V719.07l-4-4.651V640Z" />
  <path
     id="sideblock_left-9"
     data-name="sideblock_left"
     class="cls-8"
     d="M59,644.651L63,640v74.419l-4,4.651V644.651Z" />
  <path
     id="sideblock_shadow-11"
     data-name="sideblock_shadow"
     class="cls-4"
     d="M55,731l16-7v76l-16,7V731Z" />
  <rect
     id="sideblock_front-10"
     data-name="sideblock_front"
     class="cls-5"
     x="59"
     y="792.562"
     width="12"
     height="7.438" />
  <path
     id="sideblock_top-10"
     data-name="sideblock_top"
     class="cls-6"
     d="M63,720h4v74.419H63V720Z" />
  <path
     id="sideblock_right-10"
     data-name="sideblock_right"
     class="cls-7"
     d="M67,720l4,4.651V799.07l-4-4.651V720Z" />
  <path
     id="sideblock_left-10"
     data-name="sideblock_left"
     class="cls-8"
     d="M59,724.651L63,720v74.419l-4,4.651V724.651Z" />
  <path
     id="sideblock_shadow-12"
     data-name="sideblock_shadow"
     class="cls-4"
     d="M55,811l16-7v76l-16,7V811Z" />
  <rect
     id="sideblock_front-11"
     data-name="sideblock_front"
     class="cls-5"
     x="59"
     y="872.562"
     width="12"
     height="7.438" />
  <path
     id="sideblock_top-11"
     data-name="sideblock_top"
     class="cls-6"
     d="M63,800h4v74.419H63V800Z" />
  <path
     id="sideblock_right-11"
     data-name="sideblock_right"
     class="cls-7"
     d="M67,800l4,4.651V879.07l-4-4.651V800Z" />
  <path
     id="sideblock_left-11"
     data-name="sideblock_left"
     class="cls-8"
     d="M59,804.651L63,800v74.419l-4,4.651V804.651Z" />
  <path
     id="sideblock_shadow-13"
     data-name="sideblock_shadow"
     class="cls-4"
     d="M55,891l16-7v76l-16,7V891Z" />
  <rect
     id="sideblock_front-12"
     data-name="sideblock_front"
     class="cls-5"
     x="59"
     y="952.562"
     width="12"
     height="7.438" />
  <path
     id="sideblock_top-12"
     data-name="sideblock_top"
     class="cls-6"
     d="M63,880h4v74.419H63V880Z" />
  <path
     id="sideblock_right-12"
     data-name="sideblock_right"
     class="cls-7"
     d="M67,880l4,4.651V959.07l-4-4.651V880Z" />
  <path
     id="sideblock_left-12"
     data-name="sideblock_left"
     class="cls-8"
     d="M59,884.651L63,880v74.419l-4,4.651V884.651Z" />
  <path
     id="sideblock_shadow-14"
     data-name="sideblock_shadow"
     class="cls-4"
     d="M55,971l16-7v76l-16,7V971Z" />
  <rect
     id="sideblock_front-13"
     data-name="sideblock_front"
     class="cls-5"
     x="59"
     y="1032.56"
     width="12"
     height="7.44" />
  <path
     id="sideblock_top-13"
     data-name="sideblock_top"
     class="cls-6"
     d="M63,960h4v74.42H63V960Z" />
  <path
     id="sideblock_right-13"
     data-name="sideblock_right"
     class="cls-7"
     d="M67,960l4,4.651v74.419l-4-4.65V960Z" />
  <path
     id="sideblock_left-13"
     data-name="sideblock_left"
     class="cls-8"
     d="M59,964.651L63,960v74.42l-4,4.65V964.651Z" />
  <path
     id="sideblock_shadow-15"
     data-name="sideblock_shadow"
     class="cls-4"
     d="M55,1051l16-7v76l-16,7v-76Z" />
  <rect
     id="sideblock_front-14"
     data-name="sideblock_front"
     class="cls-5"
     x="59"
     y="1112.56"
     width="12"
     height="7.44" />
  <path
     id="sideblock_top-14"
     data-name="sideblock_top"
     class="cls-6"
     d="M63,1040h4v74.42H63V1040Z" />
  <path
     id="sideblock_right-14"
     data-name="sideblock_right"
     class="cls-7"
     d="M67,1040l4,4.65v74.42l-4-4.65V1040Z" />
  <path
     id="sideblock_left-14"
     data-name="sideblock_left"
     class="cls-8"
     d="M59,1044.65l4-4.65v74.42l-4,4.65v-74.42Z" />
  <path
     id="sideblock_shadow-16"
     data-name="sideblock_shadow"
     class="cls-4"
     d="M55,1131l16-7v76l-16,7v-76Z" />
  <rect
     id="sideblock_front-15"
     data-name="sideblock_front"
     class="cls-5"
     x="59"
     y="1192.56"
     width="12"
     height="7.44" />
  <path
     id="sideblock_top-15"
     data-name="sideblock_top"
     class="cls-6"
     d="M63,1120h4v74.42H63V1120Z" />
  <path
     id="sideblock_right-15"
     data-name="sideblock_right"
     class="cls-7"
     d="M67,1120l4,4.65v74.42l-4-4.65V1120Z" />
  <path
     id="sideblock_left-15"
     data-name="sideblock_left"
     class="cls-8"
     d="M59,1124.65l4-4.65v74.42l-4,4.65v-74.42Z" />
  <path
     id="sideblock_shadow-17"
     data-name="sideblock_shadow"
     class="cls-4"
     d="M55,1211l16-7v76l-16,7v-76Z" />
  <rect
     id="sideblock_front-16"
     data-name="sideblock_front"
     class="cls-5"
     x="59"
     y="1272.56"
     width="12"
     height="7.44" />
  <path
     id="sideblock_top-16"
     data-name="sideblock_top"
     class="cls-6"
     d="M63,1200h4v74.42H63V1200Z" />
  <path
     id="sideblock_right-16"
     data-name="sideblock_right"
     class="cls-7"
     d="M67,1200l4,4.65v74.42l-4-4.65V1200Z" />
  <path
     id="sideblock_left-16"
     data-name="sideblock_left"
     class="cls-8"
     d="M59,1204.65l4-4.65v74.42l-4,4.65v-74.42Z" />
  <path
     id="sideblock_shadow-18"
     data-name="sideblock_shadow"
     class="cls-4"
     d="M55,1291l16-7v76l-16,7v-76Z" />
  <rect
     id="sideblock_front-17"
     data-name="sideblock_front"
     class="cls-5"
     x="59"
     y="1352.56"
     width="12"
     height="7.44" />
  <path
     id="sideblock_top-17"
     data-name="sideblock_top"
     class="cls-6"
     d="M63,1280h4v74.42H63V1280Z" />
  <path
     id="sideblock_right-17"
     data-name="sideblock_right"
     class="cls-7"
     d="M67,1280l4,4.65v74.42l-4-4.65V1280Z" />
  <path
     id="sideblock_left-17"
     data-name="sideblock_left"
     class="cls-8"
     d="M59,1284.65l4-4.65v74.42l-4,4.65v-74.42Z" />
  <path
     id="sideblock_shadow-19"
     data-name="sideblock_shadow"
     class="cls-4"
     d="M55,1371l16-7v76l-16,7v-76Z" />
  <rect
     id="sideblock_front-18"
     data-name="sideblock_front"
     class="cls-5"
     x="59"
     y="1432.56"
     width="12"
     height="7.44" />
  <path
     id="sideblock_top-18"
     data-name="sideblock_top"
     class="cls-6"
     d="M63,1360h4v74.42H63V1360Z" />
  <path
     id="sideblock_right-18"
     data-name="sideblock_right"
     class="cls-7"
     d="M67,1360l4,4.65v74.42l-4-4.65V1360Z" />
  <path
     id="sideblock_left-18"
     data-name="sideblock_left"
     class="cls-8"
     d="M59,1364.65l4-4.65v74.42l-4,4.65v-74.42Z" />
  <path
     id="sideblock_shadow-20"
     data-name="sideblock_shadow"
     class="cls-4"
     d="M55,1451l16-7v76l-16,7v-76Z" />
  <rect
     id="sideblock_front-19"
     data-name="sideblock_front"
     class="cls-5"
     x="59"
     y="1512.56"
     width="12"
     height="7.44" />
  <path
     id="sideblock_top-19"
     data-name="sideblock_top"
     class="cls-6"
     d="M63,1440h4v74.42H63V1440Z" />
  <path
     id="sideblock_right-19"
     data-name="sideblock_right"
     class="cls-7"
     d="M67,1440l4,4.65v74.42l-4-4.65V1440Z" />
  <path
     id="sideblock_left-19"
     data-name="sideblock_left"
     class="cls-8"
     d="M59,1444.65l4-4.65v74.42l-4,4.65v-74.42Z" />
  <path
     id="sideblock_shadow-21"
     data-name="sideblock_shadow"
     class="cls-4"
     d="M55,1531l16-7v76l-16,7v-76Z" />
  <rect
     id="sideblock_front-20"
     data-name="sideblock_front"
     class="cls-5"
     x="59"
     y="1592.56"
     width="12"
     height="7.44" />
  <path
     id="sideblock_top-20"
     data-name="sideblock_top"
     class="cls-6"
     d="M63,1520h4v74.42H63V1520Z" />
  <path
     id="sideblock_right-20"
     data-name="sideblock_right"
     class="cls-7"
     d="M67,1520l4,4.65v74.42l-4-4.65V1520Z" />
  <path
     id="sideblock_left-20"
     data-name="sideblock_left"
     class="cls-8"
     d="M59,1524.65l4-4.65v74.42l-4,4.65v-74.42Z" />
  <path
     id="sideblock_shadow-22"
     data-name="sideblock_shadow"
     class="cls-4"
     d="M55,1611l16-7v76l-16,7v-76Z" />
  <rect
     id="sideblock_front-21"
     data-name="sideblock_front"
     class="cls-5"
     x="59"
     y="1672.56"
     width="12"
     height="7.44" />
  <path
     id="sideblock_top-21"
     data-name="sideblock_top"
     class="cls-6"
     d="M63,1600h4v74.42H63V1600Z" />
  <path
     id="sideblock_right-21"
     data-name="sideblock_right"
     class="cls-7"
     d="M67,1600l4,4.65v74.42l-4-4.65V1600Z" />
  <path
     id="sideblock_left-21"
     data-name="sideblock_left"
     class="cls-8"
     d="M59,1604.65l4-4.65v74.42l-4,4.65v-74.42Z" />
  <path
     id="sideblock_shadow-23"
     data-name="sideblock_shadow"
     class="cls-4"
     d="M55,1691l16-7v76l-16,7v-76Z" />
  <rect
     id="sideblock_front-22"
     data-name="sideblock_front"
     class="cls-5"
     x="59"
     y="1752.56"
     width="12"
     height="7.44" />
  <path
     id="sideblock_top-22"
     data-name="sideblock_top"
     class="cls-6"
     d="M63,1680h4v74.42H63V1680Z" />
  <path
     id="sideblock_right-22"
     data-name="sideblock_right"
     class="cls-7"
     d="M67,1680l4,4.65v74.42l-4-4.65V1680Z" />
  <path
     id="sideblock_left-22"
     data-name="sideblock_left"
     class="cls-8"
     d="M59,1684.65l4-4.65v74.42l-4,4.65v-74.42Z" />
  <path
     id="sideblock_shadow-24"
     data-name="sideblock_shadow"
     class="cls-4"
     d="M55,1771l16-7v76l-16,7v-76Z" />
  <rect
     id="sideblock_front-23"
     data-name="sideblock_front"
     class="cls-5"
     x="59"
     y="1832.56"
     width="12"
     height="7.44" />
  <path
     id="sideblock_top-23"
     data-name="sideblock_top"
     class="cls-6"
     d="M63,1760h4v74.42H63V1760Z" />
  <path
     id="sideblock_right-23"
     data-name="sideblock_right"
     class="cls-7"
     d="M67,1760l4,4.65v74.42l-4-4.65V1760Z" />
  <path
     id="sideblock_left-23"
     data-name="sideblock_left"
     class="cls-8"
     d="M59,1764.65l4-4.65v74.42l-4,4.65v-74.42Z" />
  <path
     id="sideblock_shadow-25"
     data-name="sideblock_shadow"
     class="cls-4"
     d="M55,1851l16-7v76l-16,7v-76Z" />
  <rect
     id="sideblock_front-24"
     data-name="sideblock_front"
     class="cls-5"
     x="59"
     y="1912.56"
     width="12"
     height="7.44" />
  <path
     id="sideblock_top-24"
     data-name="sideblock_top"
     class="cls-6"
     d="M63,1840h4v74.42H63V1840Z" />
  <path
     id="sideblock_right-24"
     data-name="sideblock_right"
     class="cls-7"
     d="M67,1840l4,4.65v74.42l-4-4.65V1840Z" />
  <path
     id="sideblock_left-24"
     data-name="sideblock_left"
     class="cls-8"
     d="M59,1844.65l4-4.65v74.42l-4,4.65v-74.42Z" />
  <path
     id="sideblock_shadow-26"
     data-name="sideblock_shadow"
     class="cls-4"
     d="M284-69l16-7V0L284,7V-69Z" />
  <path
     id="sideblock_shadow-27"
     data-name="sideblock_shadow"
     class="cls-4"
     d="M284,11l16-7V80l-16,7V11Z" />
  <rect
     id="sideblock_front-25"
     data-name="sideblock_front"
     class="cls-5"
     x="288"
     y="72.563"
     width="12"
     height="7.438" />
  <path
     id="sideblock_top-25"
     data-name="sideblock_top"
     class="cls-6"
     d="M292,0h4V74.419h-4V0Z" />
  <path
     id="sideblock_right-25"
     data-name="sideblock_right"
     class="cls-7"
     d="M296,0l4,4.651V79.07l-4-4.651V0Z" />
  <path
     id="sideblock_left-25"
     data-name="sideblock_left"
     class="cls-8"
     d="M288,4.651L292,0V74.419l-4,4.651V4.651Z" />
  <path
     id="sideblock_shadow-28"
     data-name="sideblock_shadow"
     class="cls-4"
     d="M284,91l16-7v76l-16,7V91Z" />
  <rect
     id="sideblock_front-26"
     data-name="sideblock_front"
     class="cls-5"
     x="288"
     y="152.562"
     width="12"
     height="7.438" />
  <path
     id="sideblock_top-26"
     data-name="sideblock_top"
     class="cls-6"
     d="M292,80h4v74.419h-4V80Z" />
  <path
     id="sideblock_right-26"
     data-name="sideblock_right"
     class="cls-7"
     d="M296,80l4,4.651V159.07l-4-4.651V80Z" />
  <path
     id="sideblock_left-26"
     data-name="sideblock_left"
     class="cls-8"
     d="M288,84.651L292,80v74.419l-4,4.651V84.651Z" />
  <path
     id="sideblock_shadow-29"
     data-name="sideblock_shadow"
     class="cls-4"
     d="M284,171l16-7v76l-16,7V171Z" />
  <rect
     id="sideblock_front-27"
     data-name="sideblock_front"
     class="cls-5"
     x="288"
     y="232.562"
     width="12"
     height="7.438" />
  <path
     id="sideblock_top-27"
     data-name="sideblock_top"
     class="cls-6"
     d="M292,160h4v74.419h-4V160Z" />
  <path
     id="sideblock_right-27"
     data-name="sideblock_right"
     class="cls-7"
     d="M296,160l4,4.651V239.07l-4-4.651V160Z" />
  <path
     id="sideblock_left-27"
     data-name="sideblock_left"
     class="cls-8"
     d="M288,164.651L292,160v74.419l-4,4.651V164.651Z" />
  <path
     id="sideblock_shadow-30"
     data-name="sideblock_shadow"
     class="cls-4"
     d="M284,251l16-7v76l-16,7V251Z" />
  <rect
     id="sideblock_front-28"
     data-name="sideblock_front"
     class="cls-5"
     x="288"
     y="312.562"
     width="12"
     height="7.438" />
  <path
     id="sideblock_top-28"
     data-name="sideblock_top"
     class="cls-6"
     d="M292,240h4v74.419h-4V240Z" />
  <path
     id="sideblock_right-28"
     data-name="sideblock_right"
     class="cls-7"
     d="M296,240l4,4.651V319.07l-4-4.651V240Z" />
  <path
     id="sideblock_left-28"
     data-name="sideblock_left"
     class="cls-8"
     d="M288,244.651L292,240v74.419l-4,4.651V244.651Z" />
  <path
     id="sideblock_shadow-31"
     data-name="sideblock_shadow"
     class="cls-4"
     d="M284,331l16-7v76l-16,7V331Z" />
  <rect
     id="sideblock_front-29"
     data-name="sideblock_front"
     class="cls-5"
     x="288"
     y="392.562"
     width="12"
     height="7.438" />
  <path
     id="sideblock_top-29"
     data-name="sideblock_top"
     class="cls-6"
     d="M292,320h4v74.419h-4V320Z" />
  <path
     id="sideblock_right-29"
     data-name="sideblock_right"
     class="cls-7"
     d="M296,320l4,4.651V399.07l-4-4.651V320Z" />
  <path
     id="sideblock_left-29"
     data-name="sideblock_left"
     class="cls-8"
     d="M288,324.651L292,320v74.419l-4,4.651V324.651Z" />
  <path
     id="sideblock_shadow-32"
     data-name="sideblock_shadow"
     class="cls-4"
     d="M284,411l16-7v76l-16,7V411Z" />
  <rect
     id="sideblock_front-30"
     data-name="sideblock_front"
     class="cls-5"
     x="288"
     y="472.562"
     width="12"
     height="7.438" />
  <path
     id="sideblock_top-30"
     data-name="sideblock_top"
     class="cls-6"
     d="M292,400h4v74.419h-4V400Z" />
  <path
     id="sideblock_right-30"
     data-name="sideblock_right"
     class="cls-7"
     d="M296,400l4,4.651V479.07l-4-4.651V400Z" />
  <path
     id="sideblock_left-30"
     data-name="sideblock_left"
     class="cls-8"
     d="M288,404.651L292,400v74.419l-4,4.651V404.651Z" />
  <path
     id="sideblock_shadow-33"
     data-name="sideblock_shadow"
     class="cls-4"
     d="M284,491l16-7v76l-16,7V491Z" />
  <rect
     id="sideblock_front-31"
     data-name="sideblock_front"
     class="cls-5"
     x="288"
     y="552.562"
     width="12"
     height="7.438" />
  <path
     id="sideblock_top-31"
     data-name="sideblock_top"
     class="cls-6"
     d="M292,480h4v74.419h-4V480Z" />
  <path
     id="sideblock_right-31"
     data-name="sideblock_right"
     class="cls-7"
     d="M296,480l4,4.651V559.07l-4-4.651V480Z" />
  <path
     id="sideblock_left-31"
     data-name="sideblock_left"
     class="cls-8"
     d="M288,484.651L292,480v74.419l-4,4.651V484.651Z" />
  <path
     id="sideblock_shadow-34"
     data-name="sideblock_shadow"
     class="cls-4"
     d="M284,571l16-7v76l-16,7V571Z" />
  <rect
     id="sideblock_front-32"
     data-name="sideblock_front"
     class="cls-5"
     x="288"
     y="632.562"
     width="12"
     height="7.438" />
  <path
     id="sideblock_top-32"
     data-name="sideblock_top"
     class="cls-6"
     d="M292,560h4v74.419h-4V560Z" />
  <path
     id="sideblock_right-32"
     data-name="sideblock_right"
     class="cls-7"
     d="M296,560l4,4.651V639.07l-4-4.651V560Z" />
  <path
     id="sideblock_left-32"
     data-name="sideblock_left"
     class="cls-8"
     d="M288,564.651L292,560v74.419l-4,4.651V564.651Z" />
  <path
     id="sideblock_shadow-35"
     data-name="sideblock_shadow"
     class="cls-4"
     d="M284,651l16-7v76l-16,7V651Z" />
  <rect
     id="sideblock_front-33"
     data-name="sideblock_front"
     class="cls-5"
     x="288"
     y="712.562"
     width="12"
     height="7.438" />
  <path
     id="sideblock_top-33"
     data-name="sideblock_top"
     class="cls-6"
     d="M292,640h4v74.419h-4V640Z" />
  <path
     id="sideblock_right-33"
     data-name="sideblock_right"
     class="cls-7"
     d="M296,640l4,4.651V719.07l-4-4.651V640Z" />
  <path
     id="sideblock_left-33"
     data-name="sideblock_left"
     class="cls-8"
     d="M288,644.651L292,640v74.419l-4,4.651V644.651Z" />
  <path
     id="sideblock_shadow-36"
     data-name="sideblock_shadow"
     class="cls-4"
     d="M284,731l16-7v76l-16,7V731Z" />
  <rect
     id="sideblock_front-34"
     data-name="sideblock_front"
     class="cls-5"
     x="288"
     y="792.562"
     width="12"
     height="7.438" />
  <path
     id="sideblock_top-34"
     data-name="sideblock_top"
     class="cls-6"
     d="M292,720h4v74.419h-4V720Z" />
  <path
     id="sideblock_right-34"
     data-name="sideblock_right"
     class="cls-7"
     d="M296,720l4,4.651V799.07l-4-4.651V720Z" />
  <path
     id="sideblock_left-34"
     data-name="sideblock_left"
     class="cls-8"
     d="M288,724.651L292,720v74.419l-4,4.651V724.651Z" />
  <path
     id="sideblock_shadow-37"
     data-name="sideblock_shadow"
     class="cls-4"
     d="M284,811l16-7v76l-16,7V811Z" />
  <rect
     id="sideblock_front-35"
     data-name="sideblock_front"
     class="cls-5"
     x="288"
     y="872.562"
     width="12"
     height="7.438" />
  <path
     id="sideblock_top-35"
     data-name="sideblock_top"
     class="cls-6"
     d="M292,800h4v74.419h-4V800Z" />
  <path
     id="sideblock_right-35"
     data-name="sideblock_right"
     class="cls-7"
     d="M296,800l4,4.651V879.07l-4-4.651V800Z" />
  <path
     id="sideblock_left-35"
     data-name="sideblock_left"
     class="cls-8"
     d="M288,804.651L292,800v74.419l-4,4.651V804.651Z" />
  <path
     id="sideblock_shadow-38"
     data-name="sideblock_shadow"
     class="cls-4"
     d="M284,891l16-7v76l-16,7V891Z" />
  <rect
     id="sideblock_front-36"
     data-name="sideblock_front"
     class="cls-5"
     x="288"
     y="952.562"
     width="12"
     height="7.438" />
  <path
     id="sideblock_top-36"
     data-name="sideblock_top"
     class="cls-6"
     d="M292,880h4v74.419h-4V880Z" />
  <path
     id="sideblock_right-36"
     data-name="sideblock_right"
     class="cls-7"
     d="M296,880l4,4.651V959.07l-4-4.651V880Z" />
  <path
     id="sideblock_left-36"
     data-name="sideblock_left"
     class="cls-8"
     d="M288,884.651L292,880v74.419l-4,4.651V884.651Z" />
  <path
     id="sideblock_shadow-39"
     data-name="sideblock_shadow"
     class="cls-4"
     d="M284,971l16-7v76l-16,7V971Z" />
  <rect
     id="sideblock_front-37"
     data-name="sideblock_front"
     class="cls-5"
     x="288"
     y="1032.56"
     width="12"
     height="7.44" />
  <path
     id="sideblock_top-37"
     data-name="sideblock_top"
     class="cls-6"
     d="M292,960h4v74.42h-4V960Z" />
  <path
     id="sideblock_right-37"
     data-name="sideblock_right"
     class="cls-7"
     d="M296,960l4,4.651v74.419l-4-4.65V960Z" />
  <path
     id="sideblock_left-37"
     data-name="sideblock_left"
     class="cls-8"
     d="M288,964.651L292,960v74.42l-4,4.65V964.651Z" />
  <path
     id="sideblock_shadow-40"
     data-name="sideblock_shadow"
     class="cls-4"
     d="M284,1051l16-7v76l-16,7v-76Z" />
  <rect
     id="sideblock_front-38"
     data-name="sideblock_front"
     class="cls-5"
     x="288"
     y="1112.56"
     width="12"
     height="7.44" />
  <path
     id="sideblock_top-38"
     data-name="sideblock_top"
     class="cls-6"
     d="M292,1040h4v74.42h-4V1040Z" />
  <path
     id="sideblock_right-38"
     data-name="sideblock_right"
     class="cls-7"
     d="M296,1040l4,4.65v74.42l-4-4.65V1040Z" />
  <path
     id="sideblock_left-38"
     data-name="sideblock_left"
     class="cls-8"
     d="M288,1044.65l4-4.65v74.42l-4,4.65v-74.42Z" />
  <path
     id="sideblock_shadow-41"
     data-name="sideblock_shadow"
     class="cls-4"
     d="M284,1131l16-7v76l-16,7v-76Z" />
  <rect
     id="sideblock_front-39"
     data-name="sideblock_front"
     class="cls-5"
     x="288"
     y="1192.56"
     width="12"
     height="7.44" />
  <path
     id="sideblock_top-39"
     data-name="sideblock_top"
     class="cls-6"
     d="M292,1120h4v74.42h-4V1120Z" />
  <path
     id="sideblock_right-39"
     data-name="sideblock_right"
     class="cls-7"
     d="M296,1120l4,4.65v74.42l-4-4.65V1120Z" />
  <path
     id="sideblock_left-39"
     data-name="sideblock_left"
     class="cls-8"
     d="M288,1124.65l4-4.65v74.42l-4,4.65v-74.42Z" />
  <path
     id="sideblock_shadow-42"
     data-name="sideblock_shadow"
     class="cls-4"
     d="M284,1211l16-7v76l-16,7v-76Z" />
  <rect
     id="sideblock_front-40"
     data-name="sideblock_front"
     class="cls-5"
     x="288"
     y="1272.56"
     width="12"
     height="7.44" />
  <path
     id="sideblock_top-40"
     data-name="sideblock_top"
     class="cls-6"
     d="M292,1200h4v74.42h-4V1200Z" />
  <path
     id="sideblock_right-40"
     data-name="sideblock_right"
     class="cls-7"
     d="M296,1200l4,4.65v74.42l-4-4.65V1200Z" />
  <path
     id="sideblock_left-40"
     data-name="sideblock_left"
     class="cls-8"
     d="M288,1204.65l4-4.65v74.42l-4,4.65v-74.42Z" />
  <path
     id="sideblock_shadow-43"
     data-name="sideblock_shadow"
     class="cls-4"
     d="M284,1291l16-7v76l-16,7v-76Z" />
  <rect
     id="sideblock_front-41"
     data-name="sideblock_front"
     class="cls-5"
     x="288"
     y="1352.56"
     width="12"
     height="7.44" />
  <path
     id="sideblock_top-41"
     data-name="sideblock_top"
     class="cls-6"
     d="M292,1280h4v74.42h-4V1280Z" />
  <path
     id="sideblock_right-41"
     data-name="sideblock_right"
     class="cls-7"
     d="M296,1280l4,4.65v74.42l-4-4.65V1280Z" />
  <path
     id="sideblock_left-41"
     data-name="sideblock_left"
     class="cls-8"
     d="M288,1284.65l4-4.65v74.42l-4,4.65v-74.42Z" />
  <path
     id="sideblock_shadow-44"
     data-name="sideblock_shadow"
     class="cls-4"
     d="M284,1371l16-7v76l-16,7v-76Z" />
  <rect
     id="sideblock_front-42"
     data-name="sideblock_front"
     class="cls-5"
     x="288"
     y="1432.56"
     width="12"
     height="7.44" />
  <path
     id="sideblock_top-42"
     data-name="sideblock_top"
     class="cls-6"
     d="M292,1360h4v74.42h-4V1360Z" />
  <path
     id="sideblock_right-42"
     data-name="sideblock_right"
     class="cls-7"
     d="M296,1360l4,4.65v74.42l-4-4.65V1360Z" />
  <path
     id="sideblock_left-42"
     data-name="sideblock_left"
     class="cls-8"
     d="M288,1364.65l4-4.65v74.42l-4,4.65v-74.42Z" />
  <path
     id="sideblock_shadow-45"
     data-name="sideblock_shadow"
     class="cls-4"
     d="M284,1451l16-7v76l-16,7v-76Z" />
  <rect
     id="sideblock_front-43"
     data-name="sideblock_front"
     class="cls-5"
     x="288"
     y="1512.56"
     width="12"
     height="7.44" />
  <path
     id="sideblock_top-43"
     data-name="sideblock_top"
     class="cls-6"
     d="M292,1440h4v74.42h-4V1440Z" />
  <path
     id="sideblock_right-43"
     data-name="sideblock_right"
     class="cls-7"
     d="M296,1440l4,4.65v74.42l-4-4.65V1440Z" />
  <path
     id="sideblock_left-43"
     data-name="sideblock_left"
     class="cls-8"
     d="M288,1444.65l4-4.65v74.42l-4,4.65v-74.42Z" />
  <path
     id="sideblock_shadow-46"
     data-name="sideblock_shadow"
     class="cls-4"
     d="M284,1531l16-7v76l-16,7v-76Z" />
  <rect
     id="sideblock_front-44"
     data-name="sideblock_front"
     class="cls-5"
     x="288"
     y="1592.56"
     width="12"
     height="7.44" />
  <path
     id="sideblock_top-44"
     data-name="sideblock_top"
     class="cls-6"
     d="M292,1520h4v74.42h-4V1520Z" />
  <path
     id="sideblock_right-44"
     data-name="sideblock_right"
     class="cls-7"
     d="M296,1520l4,4.65v74.42l-4-4.65V1520Z" />
  <path
     id="sideblock_left-44"
     data-name="sideblock_left"
     class="cls-8"
     d="M288,1524.65l4-4.65v74.42l-4,4.65v-74.42Z" />
  <path
     id="sideblock_shadow-47"
     data-name="sideblock_shadow"
     class="cls-4"
     d="M284,1611l16-7v76l-16,7v-76Z" />
  <rect
     id="sideblock_front-45"
     data-name="sideblock_front"
     class="cls-5"
     x="288"
     y="1672.56"
     width="12"
     height="7.44" />
  <path
     id="sideblock_top-45"
     data-name="sideblock_top"
     class="cls-6"
     d="M292,1600h4v74.42h-4V1600Z" />
  <path
     id="sideblock_right-45"
     data-name="sideblock_right"
     class="cls-7"
     d="M296,1600l4,4.65v74.42l-4-4.65V1600Z" />
  <path
     id="sideblock_left-45"
     data-name="sideblock_left"
     class="cls-8"
     d="M288,1604.65l4-4.65v74.42l-4,4.65v-74.42Z" />
  <path
     id="sideblock_shadow-48"
     data-name="sideblock_shadow"
     class="cls-4"
     d="M284,1691l16-7v76l-16,7v-76Z" />
  <rect
     id="sideblock_front-46"
     data-name="sideblock_front"
     class="cls-5"
     x="288"
     y="1752.56"
     width="12"
     height="7.44" />
  <path
     id="sideblock_top-46"
     data-name="sideblock_top"
     class="cls-6"
     d="M292,1680h4v74.42h-4V1680Z" />
  <path
     id="sideblock_right-46"
     data-name="sideblock_right"
     class="cls-7"
     d="M296,1680l4,4.65v74.42l-4-4.65V1680Z" />
  <path
     id="sideblock_left-46"
     data-name="sideblock_left"
     class="cls-8"
     d="M288,1684.65l4-4.65v74.42l-4,4.65v-74.42Z" />
  <path
     id="sideblock_shadow-49"
     data-name="sideblock_shadow"
     class="cls-4"
     d="M284,1771l16-7v76l-16,7v-76Z" />
  <rect
     id="sideblock_front-47"
     data-name="sideblock_front"
     class="cls-5"
     x="288"
     y="1832.56"
     width="12"
     height="7.44" />
  <path
     id="sideblock_top-47"
     data-name="sideblock_top"
     class="cls-6"
     d="M292,1760h4v74.42h-4V1760Z" />
  <path
     id="sideblock_right-47"
     data-name="sideblock_right"
     class="cls-7"
     d="M296,1760l4,4.65v74.42l-4-4.65V1760Z" />
  <path
     id="sideblock_left-47"
     data-name="sideblock_left"
     class="cls-8"
     d="M288,1764.65l4-4.65v74.42l-4,4.65v-74.42Z" />
  <path
     id="sideblock_shadow-50"
     data-name="sideblock_shadow"
     class="cls-4"
     d="M284,1851l16-7v76l-16,7v-76Z" />
  <rect
     id="sideblock_front-48"
     data-name="sideblock_front"
     class="cls-5"
     x="288"
     y="1912.56"
     width="12"
     height="7.44" />
  <path
     id="sideblock_top-48"
     data-name="sideblock_top"
     class="cls-6"
     d="M292,1840h4v74.42h-4V1840Z" />
  <path
     id="sideblock_right-48"
     data-name="sideblock_right"
     class="cls-7"
     d="M296,1840l4,4.65v74.42l-4-4.65V1840Z" />
  <path
     id="sideblock_left-48"
     data-name="sideblock_left"
     class="cls-8"
     d="M288,1844.65l4-4.65v74.42l-4,4.65v-74.42Z" />
</svg>
